Anton-Regular Italic.ufo
<glyph name="equal" format="1">
  <advance width="637"/>
  <unicode hex="003D"/>
  <outline>
    <contour>
      <point x="25" y="509" type="line"/>
      <point x="539" y="509" type="line"/>
      <point x="576" y="741" type="line"/>
      <point x="62" y="741" type="line"/>
    </contour>
    <contour>
      <point x="85" y="892" type="line"/>
      <point x="599" y="892" type="line"/>
      <point x="635" y="1116" type="line"/>
      <point x="121" y="1116" type="line"/>
    </contour>
  </outline>
</glyph>
<glyph name="question" format="1">
  <advance width="1008"/>
  <unicode hex="003F"/>
  <outline>
    <contour>
      <point x="39" y="455" type="line"/>
      <point x="372" y="455" type="line"/>
      <point x="399" y="625" type="line"/>
      <point x="749" y="625"/>
      <point x="957" y="880"/>
      <point x="1011" y="1226" type="curve" smooth="yes"/>
      <point x="1067" y="1579"/>
      <point x="983" y="1776"/>
      <point x="628" y="1776" type="curve" smooth="yes"/>
      <point x="357" y="1776"/>
      <point x="148" y="1648"/>
      <point x="105" y="1379" type="curve" smooth="yes"/>
      <point x="65" y="1125" type="line"/>
      <point x="431" y="1125" type="line"/>
      <point x="454" y="1271" type="line" smooth="yes"/>
      <point x="469" y="1363"/>
      <point x="491" y="1457"/>
      <point x="578" y="1457" type="curve" smooth="yes"/>
      <point x="658" y="1457"/>
      <point x="659" y="1381"/>
      <point x="645" y="1294" type="curve" smooth="yes"/>
      <point x="585" y="912"/>
      <point x="437" y="871"/>
      <point x="104" y="871" type="curve"/>
    </contour>
    <contour>
      <point x="-44" y="1" type="line"/>
      <point x="314" y="1" type="line"/>
      <point x="361" y="299" type="line"/>
      <point x="3" y="299" type="line"/>
    </contour>
  </outline>
</glyph>
<glyph name="at" format="1">
  <advance width="1770"/>
  <unicode hex="0040"/>
  <outline>
    <contour>
      <point x="754" y="-158" type="curve" smooth="yes"/>
      <point x="842" y="-158"/>
      <point x="948" y="-148"/>
      <point x="1071" y="-127" type="curve"/>
      <point x="1075" y="99" type="line"/>
      <point x="967" y="85"/>
      <point x="878" y="78"/>
      <point x="807" y="78" type="curve" smooth="yes"/>
      <point x="453" y="78"/>
      <point x="257" y="298"/>
      <point x="326" y="734" type="curve" smooth="yes"/>
      <point x="412" y="1282"/>
      <point x="664" y="1536"/>
      <point x="1063" y="1536" type="curve" smooth="yes"/>
      <point x="1401" y="1536"/>
      <point x="1525" y="1264"/>
      <point x="1469" y="907" type="curve" smooth="yes"/>
      <point x="1446" y="761"/>
      <point x="1404" y="505"/>
      <point x="1314" y="505" type="curve" smooth="yes"/>
      <point x="1265" y="505"/>
      <point x="1218" y="582"/>
      <point x="1230" y="650" type="curve" smooth="yes"/>
      <point x="1330" y="1290" type="line"/>
      <point x="1104" y="1290" type="line"/>
      <point x="1044" y="1159" type="line"/>
      <point x="1008" y="1243"/>
      <point x="958" y="1299"/>
      <point x="862" y="1299" type="curve" smooth="yes"/>
      <point x="643" y="1299"/>
      <point x="536" y="1048"/>
      <point x="487" y="744" type="curve" smooth="yes"/>
      <point x="450" y="502"/>
      <point x="507" y="285"/>
      <point x="685" y="285" type="curve" smooth="yes"/>
      <point x="811" y="285"/>
      <point x="893" y="350"/>
      <point x="944" y="491" type="curve"/>
      <point x="971" y="367"/>
      <point x="1037" y="277"/>
      <point x="1233" y="277" type="curve" smooth="yes"/>
      <point x="1506" y="277"/>
      <point x="1649" y="493"/>
      <point x="1711" y="882" type="curve" smooth="yes"/>
      <point x="1799" y="1440"/>
      <point x="1584" y="1776"/>
      <point x="1118" y="1776" type="curve" smooth="yes"/>
      <point x="590" y="1776"/>
      <point x="158" y="1480"/>
      <point x="37" y="717" type="curve" smooth="yes"/>
      <point x="-63" y="86"/>
      <point x="283" y="-158"/>
    </contour>
    <contour>
      <point x="847" y="532" type="curve" smooth="yes"/>
      <point x="782" y="532"/>
      <point x="780" y="638"/>
      <point x="796" y="733" type="curve" smooth="yes"/>
      <point x="825" y="924"/>
      <point x="853" y="1074"/>
      <point x="1011" y="1074" type="curve"/>
      <point x="950" y="682" type="line" smooth="yes"/>
      <point x="938" y="609"/>
      <point x="908" y="532"/>
    </contour>
  </outline>
</glyph>
<glyph name="G" format="1">
  <advance width="993"/>
  <unicode hex="0047"/>
  <outline>
    <contour>
      <point x="278" y="-16" type="curve" smooth="yes"/>
      <point x="409" y="-16"/>
      <point x="513" y="36"/>
      <point x="594" y="148" type="curve"/>
      <point x="631" y="0" type="line"/>
      <point x="772" y="0" type="line"/>
      <point x="934" y="1025" type="line"/>
      <point x="504" y="1025" type="line"/>
      <point x="455" y="721" type="line"/>
      <point x="549" y="721" type="line"/>
      <point x="510" y="470" type="line" smooth="yes"/>
      <point x="495" y="372"/>
      <point x="466" y="308"/>
      <point x="392" y="308" type="curve" smooth="yes"/>
      <point x="320" y="308"/>
      <point x="311" y="373"/>
      <point x="325" y="468" type="curve" smooth="yes"/>
      <point x="460" y="1321" type="line" smooth="yes"/>
      <point x="470" y="1386"/>
      <point x="499" y="1452"/>
      <point x="581" y="1452" type="curve" smooth="yes"/>
      <point x="646" y="1452"/>
      <point x="652" y="1394"/>
      <point x="640" y="1318" type="curve" smooth="yes"/>
      <point x="616" y="1162" type="line"/>
      <point x="960" y="1162" type="line"/>
      <point x="1021" y="1555"/>
      <point x="971" y="1776"/>
      <point x="616" y="1776" type="curve" smooth="yes"/>
      <point x="328" y="1776"/>
      <point x="157" y="1608"/>
      <point x="106" y="1283" type="curve" smooth="yes"/>
      <point x="-14" y="524" type="line" smooth="yes"/>
      <point x="-70" y="161"/>
      <point x="24" y="-16"/>
    </contour>
    <contour>
      <point x="344" y="0" type="move" name="bot"/>
    </contour>
    <contour>
      <point x="612" y="1760" type="move" name="top"/>
    </contour>
  </outline>
</glyph>
<glyph name="N" format="1">
  <advance width="1020"/>
  <unicode hex="004E"/>
  <outline>
    <contour>
      <point x="-79" y="0" type="line"/>
      <point x="265" y="0" type="line"/>
      <point x="403" y="880" type="line"/>
      <point x="441" y="0" type="line"/>
      <point x="785" y="0" type="line"/>
      <point x="1062" y="1760" type="line"/>
      <point x="722" y="1760" type="line"/>
      <point x="589" y="917" type="line"/>
      <point x="560" y="1760" type="line"/>
      <point x="198" y="1760" type="line"/>
    </contour>
    <contour>
      <point x="346" y="0" type="move" name="bot"/>
    </contour>
    <contour>
      <point x="651" y="1760" type="move" name="top"/>
    </contour>
  </outline>
</glyph>
<glyph name="Z" format="1">
  <advance width="840"/>
  <unicode hex="005A"/>
  <outline>
    <contour>
      <point x="-125" y="0" type="line"/>
      <point x="632" y="0" type="line"/>
      <point x="683" y="324" type="line"/>
      <point x="290" y="324" type="line"/>
      <point x="877" y="1452" type="line"/>
      <point x="926" y="1760" type="line"/>
      <point x="191" y="1760" type="line"/>
      <point x="140" y="1436" type="line"/>
      <point x="504" y="1436" type="line"/>
      <point x="-75" y="320" type="line"/>
    </contour>
    <contour>
      <point x="598" y="1760" type="move" name="top"/>
    </contour>
  </outline>
</glyph>
<glyph name="b" format="1">
  <advance width="1027"/>
  <unicode hex="0062"/>
  <outline>
    <contour>
      <point x="490" y="-16" type="curve" smooth="yes"/>
      <point x="714" y="-16"/>
      <point x="833" y="160"/>
      <point x="870" y="391" type="curve" smooth="yes"/>
      <point x="983" y="1114" type="line" smooth="yes"/>
      <point x="1023" y="1360"/>
      <point x="964" y="1516"/>
      <point x="720" y="1516" type="curve" smooth="yes"/>
      <point x="647" y="1516"/>
      <point x="575" y="1488"/>
      <point x="506" y="1427" type="curve"/>
      <point x="560" y="1770" type="line"/>
      <point x="192" y="1770" type="line"/>
      <point x="-87" y="0" type="line"/>
      <point x="281" y="0" type="line"/>
      <point x="306" y="160" type="line"/>
      <point x="332" y="41"/>
      <point x="393" y="-16"/>
    </contour>
    <contour>
      <point x="412" y="263" type="curve" smooth="yes"/>
      <point x="329" y="263"/>
      <point x="336" y="349"/>
      <point x="353" y="457" type="curve" smooth="yes"/>
      <point x="452" y="1085" type="line" smooth="yes"/>
      <point x="466" y="1175"/>
      <point x="492" y="1239"/>
      <point x="564" y="1239" type="curve" smooth="yes"/>
      <point x="634" y="1239"/>
      <point x="629" y="1171"/>
      <point x="615" y="1081" type="curve" smooth="yes"/>
      <point x="517" y="457" type="line" smooth="yes"/>
      <point x="499" y="347"/>
      <point x="491" y="263"/>
    </contour>
    <contour>
      <point x="798" y="1760" type="move" name="top"/>
    </contour>
  </outline>
</glyph>
<glyph name="e" format="1">
  <advance width="1000"/>
  <unicode hex="0065"/>
  <outline>
    <contour>
      <point x="371" y="-16" type="curve" smooth="yes"/>
      <point x="711" y="-16"/>
      <point x="848" y="157"/>
      <point x="901" y="494" type="curve" smooth="yes"/>
      <point x="914" y="579" type="line"/>
      <point x="558" y="579" type="line"/>
      <point x="535" y="435" type="line" smooth="yes"/>
      <point x="522" y="350"/>
      <point x="512" y="260"/>
      <point x="426" y="260" type="curve" smooth="yes"/>
      <point x="346" y="260"/>
      <point x="353" y="346"/>
      <point x="366" y="427" type="curve" smooth="yes"/>
      <point x="412" y="717" type="line"/>
      <point x="932" y="717" type="line"/>
      <point x="943" y="768"/>
      <point x="957" y="848"/>
      <point x="978" y="983" type="curve" smooth="yes"/>
      <point x="995" y="1092" type="line" smooth="yes"/>
      <point x="1040" y="1376"/>
      <point x="918" y="1516"/>
      <point x="630" y="1516" type="curve" smooth="yes"/>
      <point x="350" y="1516"/>
      <point x="157" y="1371"/>
      <point x="113" y="1092" type="curve" smooth="yes"/>
      <point x="18" y="489" type="line" smooth="yes"/>
      <point x="-32" y="170"/>
      <point x="50" y="-16"/>
    </contour>
    <contour>
      <point x="438" y="895" type="line"/>
      <point x="468" y="1087" type="line" smooth="yes"/>
      <point x="486" y="1199"/>
      <point x="527" y="1249"/>
      <point x="584" y="1249" type="curve" smooth="yes"/>
      <point x="637" y="1249"/>
      <point x="656" y="1195"/>
      <point x="638" y="1087" type="curve" smooth="yes"/>
      <point x="608" y="895" type="line"/>
    </contour>
    <contour>
      <point x="379" y="0" type="move" name="bot"/>
    </contour>
    <contour>
      <point x="408" y="0" type="move" name="ogonek"/>
    </contour>
    <contour>
      <point x="626" y="1500" type="move" name="top"/>
    </contour>
  </outline>
</glyph>
<glyph name="g" format="1">
  <advance width="1032"/>
  <unicode hex="0067"/>
  <outline>
    <contour>
      <point x="322" y="-220" type="curve" smooth="yes"/>
      <point x="659" y="-220"/>
      <point x="831" y="-86"/>
      <point x="885" y="254" type="curve" smooth="yes"/>
      <point x="1081" y="1500" type="line"/>
      <point x="716" y="1500" type="line"/>
      <point x="690" y="1331" type="line"/>
      <point x="682" y="1444"/>
      <point x="622" y="1516"/>
      <point x="490" y="1516" type="curve" smooth="yes"/>
      <point x="255" y="1516"/>
      <point x="164" y="1348"/>
      <point x="127" y="1106" type="curve" smooth="yes"/>
      <point x="38" y="543" type="line" smooth="yes"/>
      <point x="4" y="328"/>
      <point x="62" y="160"/>
      <point x="277" y="160" type="curve" smooth="yes"/>
      <point x="400" y="160"/>
      <point x="484" y="211"/>
      <point x="529" y="314" type="curve"/>
      <point x="516" y="231" type="line" smooth="yes"/>
      <point x="498" y="113"/>
      <point x="430" y="33"/>
      <point x="315" y="33" type="curve" smooth="yes"/>
      <point x="228" y="33"/>
      <point x="144" y="59"/>
      <point x="65" y="111" type="curve"/>
      <point x="-88" y="-96" type="line"/>
      <point x="13" y="-194"/>
      <point x="114" y="-220"/>
    </contour>
    <contour>
      <point x="464" y="430" type="curve" smooth="yes"/>
      <point x="390" y="430"/>
      <point x="394" y="510"/>
      <point x="405" y="582" type="curve" smooth="yes"/>
      <point x="490" y="1116" type="line" smooth="yes"/>
      <point x="500" y="1183"/>
      <point x="518" y="1243"/>
      <point x="587" y="1243" type="curve" smooth="yes"/>
      <point x="642" y="1243"/>
      <point x="665" y="1171"/>
      <point x="656" y="1116" type="curve" smooth="yes"/>
      <point x="571" y="582" type="line" smooth="yes"/>
      <point x="556" y="481"/>
      <point x="520" y="430"/>
    </contour>
    <contour>
      <point x="626" y="1500" type="move" name="top"/>
    </contour>
  </outline>
</glyph>
<glyph name="h" format="1">
  <advance width="1035"/>
  <unicode hex="0068"/>
  <outline>
    <contour>
      <point x="-87" y="0" type="line"/>
      <point x="281" y="0" type="line"/>
      <point x="460" y="1135" type="line" smooth="yes"/>
      <point x="469" y="1194"/>
      <point x="508" y="1243"/>
      <point x="557" y="1243" type="curve" smooth="yes"/>
      <point x="616" y="1243"/>
      <point x="639" y="1197"/>
      <point x="629" y="1132" type="curve"/>
      <point x="449" y="0" type="line"/>
      <point x="808" y="0" type="line"/>
      <point x="990" y="1155" type="line" smooth="yes"/>
      <point x="1025" y="1375"/>
      <point x="947" y="1516"/>
      <point x="739" y="1516" type="curve" smooth="yes"/>
      <point x="632" y="1516"/>
      <point x="550" y="1463"/>
      <point x="494" y="1351" type="curve"/>
      <point x="560" y="1770" type="line"/>
      <point x="192" y="1770" type="line"/>
    </contour>
    <contour>
      <point x="343" y="1603" type="move" name="mid"/>
    </contour>
    <contour>
      <point x="853" y="1626" type="move" name="top"/>
    </contour>
  </outline>
</glyph>
<glyph name="r" format="1">
  <advance width="704"/>
  <unicode hex="0072"/>
  <outline>
    <contour>
      <point x="-47" y="0" type="line"/>
      <point x="311" y="0" type="line"/>
      <point x="491" y="1147" type="line" smooth="yes"/>
      <point x="497" y="1187"/>
      <point x="673" y="1219"/>
      <point x="761" y="1219" type="curve"/>
      <point x="808" y="1518" type="line"/>
      <point x="675" y="1518"/>
      <point x="574" y="1449"/>
      <point x="521" y="1333" type="curve"/>
      <point x="547" y="1500" type="line"/>
      <point x="189" y="1500" type="line"/>
    </contour>
    <contour>
      <point x="150" y="0" type="move" name="bot"/>
    </contour>
    <contour>
      <point x="530" y="1500" type="move" name="top"/>
    </contour>
  </outline>
</glyph>
<glyph name="cent" format="1">
  <advance width="986"/>
  <unicode hex="00A2"/>
  <outline>
    <contour>
      <point x="252" y="-163" type="line"/>
      <point x="425" y="-163" type="line"/>
      <point x="449" y="-12" type="line"/>
      <point x="653" y="16"/>
      <point x="821" y="155"/>
      <point x="857" y="379" type="curve" smooth="yes"/>
      <point x="893" y="614" type="line"/>
      <point x="528" y="614" type="line"/>
      <point x="495" y="389" type="line" smooth="yes"/>
      <point x="485" y="322"/>
      <point x="454" y="264"/>
      <point x="392" y="264" type="curve" smooth="yes"/>
      <point x="331" y="264"/>
      <point x="315" y="326"/>
      <point x="325" y="387" type="curve" smooth="yes"/>
      <point x="439" y="1114" type="line" smooth="yes"/>
      <point x="452" y="1197"/>
      <point x="488" y="1239"/>
      <point x="547" y="1239" type="curve" smooth="yes"/>
      <point x="614" y="1239"/>
      <point x="619" y="1185"/>
      <point x="607" y="1116" type="curve" smooth="yes"/>
      <point x="570" y="879" type="line"/>
      <point x="935" y="879" type="line"/>
      <point x="975" y="1135" type="line" smooth="yes"/>
      <point x="1010" y="1354"/>
      <point x="881" y="1483"/>
      <point x="689" y="1511" type="curve"/>
      <point x="715" y="1677" type="line"/>
      <point x="542" y="1677" type="line"/>
      <point x="516" y="1514" type="line"/>
      <point x="219" y="1485"/>
      <point x="108" y="1294"/>
      <point x="54" y="954" type="curve" smooth="yes"/>
      <point x="-18" y="492" type="line" smooth="yes"/>
      <point x="-67" y="190"/>
      <point x="7" y="18"/>
      <point x="275" y="-13" type="curve"/>
    </contour>
  </outline>
</glyph>
<glyph name="yen" format="1">
  <advance width="948"/>
  <unicode hex="00A5"/>
  <outline>
    <contour>
      <point x="-24" y="271" type="line"/>
      <point x="700" y="271" type="line"/>
      <point x="728" y="445" type="line"/>
      <point x="4" y="445" type="line"/>
    </contour>
    <contour>
      <point x="20" y="543" type="line"/>
      <point x="744" y="543" type="line"/>
      <point x="771" y="717" type="line"/>
      <point x="47" y="717" type="line"/>
    </contour>
    <component base="Y"/>
  </outline>
</glyph>
<glyph name="brokenbar" format="1">
  <advance width="455"/>
  <unicode hex="00A6"/>
  <outline>
    <contour>
      <point x="-73" y="-84" type="line"/>
      <point x="246" y="-84" type="line"/>
      <point x="385" y="796" type="line"/>
      <point x="66" y="796" type="line"/>
    </contour>
    <contour>
      <point x="104" y="1043" type="line"/>
      <point x="423" y="1043" type="line"/>
      <point x="567" y="1953" type="line"/>
      <point x="248" y="1953" type="line"/>
    </contour>
  </outline>
</glyph>
<glyph name="copyright" format="1">
  <advance width="1382"/>
  <unicode hex="00A9"/>
  <outline>
    <contour>
      <point x="633" y="424" type="curve" smooth="yes"/>
      <point x="795" y="424"/>
      <point x="887" y="497"/>
      <point x="909" y="643" type="curve" smooth="yes"/>
      <point x="935" y="806" type="line"/>
      <point x="742" y="806" type="line"/>
      <point x="719" y="657" type="line" smooth="yes"/>
      <point x="712" y="614"/>
      <point x="694" y="592"/>
      <point x="663" y="592" type="curve" smooth="yes"/>
      <point x="635" y="592"/>
      <point x="624" y="627"/>
      <point x="629" y="657" type="curve" smooth="yes"/>
      <point x="693" y="1066" type="line" smooth="yes"/>
      <point x="700" y="1104"/>
      <point x="710" y="1130"/>
      <point x="747" y="1130" type="curve" smooth="yes"/>
      <point x="778" y="1130"/>
      <point x="790" y="1104"/>
      <point x="782" y="1053" type="curve" smooth="yes"/>
      <point x="765" y="952" type="line"/>
      <point x="954" y="952" type="line"/>
      <point x="979" y="1105" type="line" smooth="yes"/>
      <point x="1000" y="1239"/>
      <point x="910" y="1305"/>
      <point x="776" y="1305" type="curve" smooth="yes"/>
      <point x="611" y="1305"/>
      <point x="527" y="1217"/>
      <point x="501" y="1049" type="curve" smooth="yes"/>
      <point x="438" y="648" type="line" smooth="yes"/>
      <point x="416" y="507"/>
      <point x="494" y="424"/>
    </contour>
    <contour>
      <point x="625" y="334" type="curve" smooth="yes"/>
      <point x="336" y="334"/>
      <point x="164" y="571"/>
      <point x="209" y="862" type="curve" smooth="yes"/>
      <point x="255" y="1153"/>
      <point x="501" y="1390"/>
      <point x="790" y="1390" type="curve" smooth="yes"/>
      <point x="1079" y="1390"/>
      <point x="1251" y="1153"/>
      <point x="1205" y="862" type="curve" smooth="yes"/>
      <point x="1160" y="571"/>
      <point x="914" y="334"/>
    </contour>
    <contour>
      <point x="604" y="205" type="curve" smooth="yes"/>
      <point x="977" y="205"/>
      <point x="1306" y="489"/>
      <point x="1364" y="862" type="curve" smooth="yes"/>
      <point x="1423" y="1235"/>
      <point x="1184" y="1519"/>
      <point x="811" y="1519" type="curve" smooth="yes"/>
      <point x="438" y="1519"/>
      <point x="109" y="1235"/>
      <point x="50" y="862" type="curve" smooth="yes"/>
      <point x="-8" y="489"/>
      <point x="231" y="205"/>
    </contour>
  </outline>
</glyph>
<glyph name="onequarter" format="1">
  <advance width="1453"/>
  <unicode hex="00BC"/>
  <outline>
    <contour>
      <point x="974" y="-1" type="line"/>
      <point x="1181" y="-1" type="line"/>
      <point x="1206" y="151" type="line"/>
      <point x="1245" y="151" type="line"/>
      <point x="1272" y="322" type="line"/>
      <point x="1233" y="322" type="line"/>
      <point x="1330" y="941" type="line"/>
      <point x="1007" y="941" type="line"/>
      <point x="719" y="300" type="line"/>
      <point x="696" y="151" type="line"/>
      <point x="999" y="151" type="line"/>
    </contour>
    <contour>
      <point x="96" y="696" type="line"/>
      <point x="306" y="696" type="line"/>
      <point x="456" y="1647" type="line"/>
      <point x="297" y="1647" type="line"/>
      <point x="288" y="1585"/>
      <point x="163" y="1527"/>
      <point x="105" y="1527" type="curve"/>
      <point x="104" y="1523"/>
      <point x="103" y="1509"/>
      <point x="99" y="1484" type="curve" smooth="yes"/>
      <point x="94" y="1453"/>
      <point x="88" y="1417"/>
      <point x="80" y="1374" type="curve"/>
      <point x="123" y="1374"/>
      <point x="166" y="1384"/>
      <point x="207" y="1404" type="curve"/>
    </contour>
    <contour>
      <point x="124" y="0" type="line"/>
      <point x="307" y="0" type="line"/>
      <point x="1257" y="1767" type="line"/>
      <point x="973" y="1767" type="line"/>
    </contour>
    <contour>
      <point x="886" y="322" type="line"/>
      <point x="1096" y="777" type="line"/>
      <point x="1026" y="322" type="line"/>
    </contour>
  </outline>
</glyph>
<glyph name="multiply" format="1">
  <advance width="710"/>
  <unicode hex="00D7"/>
  <outline>
    <contour>
      <point x="130" y="314" type="line"/>
      <point x="300" y="461" type="line"/>
      <point x="424" y="314" type="line"/>
      <point x="614" y="478" type="line"/>
      <point x="490" y="625" type="line"/>
      <point x="660" y="772" type="line"/>
      <point x="522" y="936" type="line"/>
      <point x="352" y="789" type="line"/>
      <point x="228" y="936" type="line"/>
      <point x="38" y="772" type="line"/>
      <point x="162" y="625" type="line"/>
      <point x="-8" y="478" type="line"/>
    </contour>
  </outline>
</glyph>
<glyph name="ae" format="1">
  <advance width="1497"/>
  <unicode hex="00E6"/>
  <outline>
    <contour>
      <point x="326" y="-18" type="curve" smooth="yes"/>
      <point x="475" y="-18"/>
      <point x="591" y="51"/>
      <point x="652" y="148" type="curve"/>
      <point x="678" y="53"/>
      <point x="773" y="-18"/>
      <point x="913" y="-18" type="curve" smooth="yes"/>
      <point x="1235" y="-18"/>
      <point x="1354" y="172"/>
      <point x="1404" y="494" type="curve" smooth="yes"/>
      <point x="1418" y="579" type="line"/>
      <point x="1062" y="579" type="line"/>
      <point x="1062" y="574"/>
      <point x="1058" y="542"/>
      <point x="1049" y="483" type="curve" smooth="yes"/>
      <point x="1035" y="394"/>
      <point x="1016" y="260"/>
      <point x="930" y="260" type="curve" smooth="yes"/>
      <point x="872" y="260"/>
      <point x="855" y="338"/>
      <point x="879" y="494" type="curve" smooth="yes"/>
      <point x="913" y="704" type="line"/>
      <point x="1434" y="704" type="line"/>
      <point x="1444" y="755"/>
      <point x="1461" y="848"/>
      <point x="1481" y="983" type="curve" smooth="yes"/>
      <point x="1499" y="1092" type="line" smooth="yes"/>
      <point x="1544" y="1376"/>
      <point x="1422" y="1518"/>
      <point x="1134" y="1518" type="curve" smooth="yes"/>
      <point x="1009" y="1518"/>
      <point x="914" y="1477"/>
      <point x="848" y="1396" type="curve"/>
      <point x="806" y="1477"/>
      <point x="730" y="1518"/>
      <point x="621" y="1518" type="curve" smooth="yes"/>
      <point x="315" y="1518"/>
      <point x="162" y="1403"/>
      <point x="115" y="1105" type="curve" smooth="yes"/>
      <point x="112" y="1084"/>
      <point x="109" y="1067"/>
      <point x="108" y="1056" type="curve"/>
      <point x="456" y="1056" type="line"/>
      <point x="472" y="1157" type="line" smooth="yes"/>
      <point x="480" y="1212"/>
      <point x="510" y="1239"/>
      <point x="559" y="1239" type="curve" smooth="yes"/>
      <point x="654" y="1239"/>
      <point x="611" y="1079"/>
      <point x="595" y="983" type="curve" smooth="yes"/>
      <point x="595" y="980" type="line"/>
      <point x="241" y="865"/>
      <point x="51" y="839"/>
      <point x="-14" y="430" type="curve" smooth="yes"/>
      <point x="-57" y="154"/>
      <point x="59" y="-18"/>
    </contour>
    <contour>
      <point x="405" y="262" type="curve" smooth="yes"/>
      <point x="352" y="262"/>
      <point x="332" y="306"/>
      <point x="346" y="395" type="curve" smooth="yes"/>
      <point x="374" y="570" type="line" smooth="yes"/>
      <point x="392" y="687"/>
      <point x="457" y="734"/>
      <point x="562" y="774" type="curve"/>
      <point x="499" y="379" type="line" smooth="yes"/>
      <point x="490" y="322"/>
      <point x="463" y="262"/>
    </contour>
    <contour>
      <point x="949" y="931" type="line"/>
      <point x="968" y="1052" type="line" smooth="yes"/>
      <point x="986" y="1167"/>
      <point x="999" y="1249"/>
      <point x="1088" y="1249" type="curve" smooth="yes"/>
      <point x="1141" y="1249"/>
      <point x="1159" y="1195"/>
      <point x="1142" y="1087" type="curve" smooth="yes"/>
      <point x="1118" y="931" type="line"/>
    </contour>
    <contour>
      <point x="886" y="1500" type="move" name="top"/>
    </contour>
  </outline>
</glyph>
<glyph name="eng" format="1">
  <advance width="1002"/>
  <unicode hex="014B"/>
  <outline>
    <contour>
      <point x="312" y="-488" type="curve" smooth="yes"/>
      <point x="556" y="-488"/>
      <point x="778" y="-355"/>
      <point x="831" y="-18" type="curve" smooth="yes"/>
      <point x="862" y="182" type="line"/>
      <point x="510" y="182" type="line"/>
      <point x="476" y="-41" type="line" smooth="yes"/>
      <point x="454" y="-182"/>
      <point x="372" y="-236"/>
      <point x="272" y="-236" type="curve" smooth="yes"/>
      <point x="200" y="-236"/>
      <point x="110" y="-207"/>
      <point x="11" y="-161" type="curve"/>
      <point x="-102" y="-368" type="line"/>
      <point x="24" y="-444"/>
      <point x="172" y="-488"/>
    </contour>
    <component base="n"/>
  </outline>
</glyph>
<glyph name="circumflex" format="1">
  <advance width="970"/>
  <unicode hex="02C6"/>
  <outline>
    <contour>
      <point x="97" y="1591" type="line"/>
      <point x="456" y="1591" type="line"/>
      <point x="587" y="1876" type="line"/>
      <point x="628" y="1591" type="line"/>
      <point x="987" y="1591" type="line"/>
      <point x="809" y="1994" type="line"/>
      <point x="401" y="1994" type="line"/>
    </contour>
    <contour>
      <point x="536" y="1500" type="move" name="_top"/>
    </contour>
  </outline>
</glyph>
<glyph name="hungarumlaut" format="1">
  <advance width="1300"/>
  <unicode hex="02DD"/>
  <outline>
    <contour>
      <point x="456" y="1596" type="line"/>
      <point x="772" y="2025" type="line"/>
      <point x="559" y="2133" type="line"/>
      <point x="299" y="1654" type="line"/>
    </contour>
    <contour>
      <point x="758" y="1596" type="line"/>
      <point x="1115" y="2025" type="line"/>
      <point x="898" y="2133" type="line"/>
      <point x="601" y="1654" type="line"/>
    </contour>
    <contour>
      <point x="505" y="1500" type="move" name="_top"/>
    </contour>
  </outline>
</glyph>
<glyph name="quotesinglbase" format="1">
  <advance width="484"/>
  <unicode hex="201A"/>
  <outline>
    <contour>
      <point x="-49" y="-236" type="line"/>
      <point x="162" y="-236" type="line"/>
      <point x="304" y="9" type="line"/>
      <point x="349" y="298" type="line"/>
      <point x="-25" y="298" type="line"/>
      <point x="-72" y="0" type="line"/>
      <point x="55" y="0" type="line"/>
    </contour>
  </outline>
</glyph>
<glyph name="ellipsis" format="1">
  <advance width="1450"/>
  <unicode hex="2026"/>
  <outline>
    <contour>
      <point x="-62" y="1" type="line"/>
      <point x="296" y="1" type="line"/>
      <point x="343" y="299" type="line"/>
      <point x="-15" y="299" type="line"/>
    </contour>
    <contour>
      <point x="429" y="1" type="line"/>
      <point x="787" y="1" type="line"/>
      <point x="834" y="299" type="line"/>
      <point x="476" y="299" type="line"/>
    </contour>
    <contour>
      <point x="920" y="1" type="line"/>
      <point x="1278" y="1" type="line"/>
      <point x="1325" y="299" type="line"/>
      <point x="967" y="299" type="line"/>
    </contour>
  </outline>
</glyph>
<glyph name="guilsinglright" format="1">
  <advance width="607"/>
  <unicode hex="203A"/>
  <outline>
    <contour>
      <point x="25" y="260" type="line"/>
      <point x="580" y="545" type="line"/>
      <point x="646" y="959" type="line"/>
      <point x="178" y="1230" type="line"/>
      <point x="121" y="871" type="line"/>
      <point x="414" y="749" type="line"/>
      <point x="82" y="618" type="line"/>
    </contour>
  </outline>
</glyph>
<glyph name="estimated" format="1">
  <advance width="1000"/>
  <unicode hex="212E"/>
  <outline>
    <contour>
      <point x="371" y="-16" type="curve" smooth="yes"/>
      <point x="711" y="-16"/>
      <point x="848" y="157"/>
      <point x="901" y="494" type="curve" smooth="yes"/>
      <point x="914" y="579" type="line"/>
      <point x="558" y="579" type="line"/>
      <point x="494" y="208" type="line" smooth="yes"/>
      <point x="479" y="123"/>
      <point x="471" y="33"/>
      <point x="385" y="33" type="curve" smooth="yes"/>
      <point x="305" y="33"/>
      <point x="311" y="119"/>
      <point x="325" y="200" type="curve" smooth="yes"/>
      <point x="412" y="717" type="line"/>
      <point x="932" y="717" type="line"/>
      <point x="995" y="1092" type="line" smooth="yes"/>
      <point x="1040" y="1376"/>
      <point x="918" y="1516"/>
      <point x="630" y="1516" type="curve" smooth="yes"/>
      <point x="350" y="1516"/>
      <point x="157" y="1371"/>
      <point x="113" y="1092" type="curve" smooth="yes"/>
      <point x="18" y="489" type="line" smooth="yes"/>
      <point x="-32" y="170"/>
      <point x="50" y="-16"/>
    </contour>
    <contour>
      <point x="421" y="787" type="line"/>
      <point x="510" y="1293" type="line" smooth="yes"/>
      <point x="530" y="1405"/>
      <point x="569" y="1455"/>
      <point x="626" y="1455" type="curve" smooth="yes"/>
      <point x="679" y="1455"/>
      <point x="699" y="1401"/>
      <point x="680" y="1293" type="curve" smooth="yes"/>
      <point x="591" y="787" type="line"/>
    </contour>
  </outline>
</glyph>
<glyph name="uni2219" format="1">
  <advance width="600"/>
  <unicode hex="2219"/>
  <outline>
    <contour>
      <point x="124" y="723" type="line"/>
      <point x="442" y="723" type="line"/>
      <point x="489" y="1021" type="line"/>
      <point x="171" y="1021" type="line"/>
    </contour>
  </outline>
</glyph>
<glyph name="approxequal" format="1">
  <advance width="1009"/>
  <unicode hex="2248"/>
  <outline>
    <contour>
      <point x="642" y="340" type="curve" smooth="yes"/>
      <point x="807" y="340"/>
      <point x="882" y="478"/>
      <point x="959" y="625" type="curve"/>
      <point x="786" y="685" type="line"/>
      <point x="748" y="624"/>
      <point x="711" y="603"/>
      <point x="671" y="603" type="curve" smooth="yes"/>
      <point x="588" y="603"/>
      <point x="492" y="694"/>
      <point x="286" y="694" type="curve" smooth="yes"/>
      <point x="130" y="694"/>
      <point x="53" y="583"/>
      <point x="-23" y="451" type="curve"/>
      <point x="126" y="365" type="line"/>
      <point x="164" y="421"/>
      <point x="200" y="440"/>
      <point x="239" y="440" type="curve" smooth="yes"/>
      <point x="327" y="440"/>
      <point x="479" y="340"/>
    </contour>
    <contour>
      <point x="717" y="810" type="curve" smooth="yes"/>
      <point x="882" y="810"/>
      <point x="955" y="948"/>
      <point x="1034" y="1095" type="curve"/>
      <point x="861" y="1155" type="line"/>
      <point x="822" y="1094"/>
      <point x="786" y="1073"/>
      <point x="746" y="1073" type="curve" smooth="yes"/>
      <point x="663" y="1073"/>
      <point x="566" y="1164"/>
      <point x="360" y="1164" type="curve" smooth="yes"/>
      <point x="204" y="1164"/>
      <point x="126" y="1053"/>
      <point x="52" y="921" type="curve"/>
      <point x="201" y="835" type="line"/>
      <point x="237" y="891"/>
      <point x="274" y="910"/>
      <point x="313" y="910" type="curve" smooth="yes"/>
      <point x="401" y="910"/>
      <point x="554" y="810"/>
    </contour>
  </outline>
</glyph>
